<?xml version="1.0" encoding="UTF-8"?>
<svg id="Layer_2" data-name="Layer 2" xmlns="http://www.w3.org/2000/svg" viewBox="0 0 246.2 67.33">
  <defs>
    <style>
      .cls-1 {
        fill: #333;
      }

      .cls-1, .cls-2 {
        stroke-width: 0px;
      }

      .cls-2 {
        fill: red;
      }
    </style>
  </defs>
  <g id="background">
    <g>
      <path class="cls-1" d="m119.08,66.8h-13.37v-13.37h-26.74v13.37h-13.32V26.74c0-3.7.7-7.17,2.1-10.41s3.3-6.08,5.71-8.5c2.41-2.42,5.23-4.33,8.48-5.73,3.24-1.4,6.72-2.1,10.41-2.1s7.17.7,10.41,2.1c3.24,1.4,6.08,3.31,8.5,5.73s4.33,5.26,5.73,8.5,2.1,6.72,2.1,10.41v40.06Zm-13.37-26.69v-13.37c0-1.83-.35-3.56-1.05-5.19-.7-1.63-1.65-3.05-2.86-4.26s-2.63-2.17-4.26-2.87c-1.63-.7-3.36-1.05-5.19-1.05s-3.56.35-5.19,1.05c-1.63.7-3.05,1.65-4.26,2.87s-2.17,2.63-2.86,4.26c-.7,1.63-1.05,3.36-1.05,5.19v13.37h26.74Z"/>
      <path class="cls-1" d="m128.67,20.03c0-2.76.53-5.36,1.58-7.78,1.06-2.42,2.49-4.54,4.31-6.36,1.82-1.82,3.94-3.25,6.36-4.31,2.42-1.06,5.01-1.58,7.78-1.58h30.65v13.37h-30.65c-.93,0-1.8.17-2.61.51-.81.34-1.51.82-2.12,1.42-.61.61-1.08,1.31-1.42,2.12-.34.81-.51,1.68-.51,2.61s.17,1.81.51,2.63c.34.82.82,1.54,1.42,2.14.61.61,1.31,1.08,2.12,1.42.81.34,1.68.51,2.61.51h13.37c2.76,0,5.36.52,7.8,1.56,2.44,1.04,4.57,2.47,6.38,4.29,1.82,1.82,3.24,3.94,4.29,6.38,1.04,2.44,1.56,5.04,1.56,7.8s-.52,5.36-1.56,7.78c-1.04,2.42-2.47,4.54-4.29,6.36-1.82,1.82-3.94,3.25-6.38,4.31-2.44,1.06-5.04,1.58-7.8,1.58h-29.67v-13.37h29.67c.93,0,1.8-.17,2.61-.51.81-.34,1.51-.82,2.12-1.42.61-.61,1.08-1.31,1.42-2.12.34-.81.51-1.68.51-2.61s-.17-1.8-.51-2.61c-.34-.81-.82-1.51-1.42-2.12-.61-.61-1.31-1.08-2.12-1.42-.81-.34-1.68-.51-2.61-.51h-13.37c-2.76,0-5.36-.53-7.78-1.58-2.42-1.06-4.54-2.49-6.36-4.31-1.82-1.82-3.25-3.94-4.31-6.38-1.06-2.44-1.58-5.04-1.58-7.8Z"/>
      <path class="cls-1" d="m206.14,66.8h-13.37V0h13.37v26.74h26.69V0h13.37v66.8h-13.37v-26.69h-26.69v26.69Z"/>
      <path class="cls-1" d="m48.88,39.83V.11h-13.25v20.81c-3.33-1.69-7.1-2.65-11.1-2.65C10.98,18.27,0,29.26,0,42.8s10.98,24.53,24.53,24.53,24.35-10.98,24.35-24.53c0-1.01.12-2,0-2.97Zm-24.35,14.07c-6.13,0-11.1-4.97-11.1-11.1s4.97-11.1,11.1-11.1,11.1,4.97,11.1,11.1-4.97,11.1-11.1,11.1Z"/>
      <circle class="cls-2" cx="55.15" cy="59.22" r="7.58"/>
    </g>
  </g>
</svg>